<?xml version="1.0" standalone="no"?>
<!DOCTYPE svg PUBLIC "-//W3C//DTD SVG 20010904//EN"
 "http://www.w3.org/TR/2001/REC-SVG-20010904/DTD/svg10.dtd">
<svg version="1.0" xmlns="http://www.w3.org/2000/svg"
 width="100.000000pt" height="100.000000pt" viewBox="0 0 100.000000 100.000000"
 preserveAspectRatio="xMidYMid meet">
<metadata>
Created by potrace 1.14, written by Peter Selinger 2001-2017
</metadata>
<g transform="translate(0.000000,100.000000) scale(0.100000,-0.100000)"
fill="#000000" stroke="none">
<path d="M151 668 c-61 -74 -58 -64 -57 -197 2 -121 2 -123 -22 -132 -13 -5
-29 -9 -36 -8 -23 3 -36 -1 -36 -12 0 -7 16 -9 45 -6 32 3 45 0 45 -9 0 -8
-17 -14 -47 -17 l-48 -3 48 -2 47 -2 0 -39 c0 -46 7 -50 77 -45 45 4 52 2 58
-16 19 -59 136 -55 151 5 7 28 -1 27 168 29 107 1 121 -1 138 -18 10 -11 18
-23 18 -27 0 -4 15 -12 34 -19 41 -13 78 -1 102 35 13 19 25 25 54 25 l37 0 5
113 c2 61 2 156 -1 209 -5 81 -10 100 -28 120 l-22 24 -360 2 c-285 2 -362 0
-370 -10z m57 -40 l25 -23 -12 23 -12 22 295 -1 c253 -2 293 -4 289 -17 -5
-12 -1 -11 20 2 32 21 47 4 21 -25 -9 -10 -12 -19 -7 -19 6 0 17 9 24 21 l14
20 24 -22 c23 -22 24 -26 18 -122 -4 -55 -11 -105 -17 -111 -16 -16 -23 0 -10
26 9 19 7 18 -10 -4 -21 -27 -60 -38 -60 -18 0 6 4 10 9 10 5 0 11 10 14 23 6
22 6 22 -12 -2 -10 -13 -20 -20 -23 -15 -3 5 -3 3 -2 -4 2 -7 -2 -15 -9 -17
-6 -2 -124 -6 -260 -7 -232 -3 -248 -2 -243 15 6 24 -16 21 -32 -4 -17 -27
-27 -18 -12 10 8 17 8 21 -4 21 -8 0 -17 -9 -21 -19 -9 -28 -34 -35 -27 -8 5
22 5 22 -16 3 -30 -26 -52 -16 -24 12 28 28 28 41 0 36 l-23 -5 23 17 c24 18
30 39 8 31 -19 -8 -24 8 -20 73 5 72 16 80 48 34 14 -21 26 -34 26 -29 0 6 -9
24 -20 40 -35 53 -24 71 18 33z m205 -319 c-3 -11 0 -19 7 -19 6 0 14 9 17 20
9 33 25 23 18 -11 -8 -37 11 -32 25 7 6 15 18 24 30 24 18 0 19 -3 10 -20 -8
-16 -8 -20 4 -20 8 0 18 9 21 20 3 11 10 20 15 20 5 0 7 -7 4 -15 -4 -8 -1
-15 5 -15 7 0 14 7 17 15 4 8 10 15 16 15 5 0 7 -4 3 -9 -10 -17 12 -21 25 -6
16 19 31 19 24 0 -4 -8 -1 -15 5 -15 7 0 14 7 17 15 5 12 28 15 119 15 l112 0
-1 -37 c-1 -33 -4 -38 -28 -41 -19 -2 -28 2 -33 17 -17 55 -100 63 -145 13
l-25 -28 -142 1 c-140 1 -142 1 -169 28 -35 36 -85 37 -119 2 -14 -13 -25 -29
-25 -35 0 -5 -20 -10 -45 -10 l-46 0 3 38 c2 20 6 39 10 42 3 3 67 6 141 6
127 2 134 1 130 -17z m381 -45 c21 -21 20 -47 -3 -68 -14 -13 -24 -14 -45 -7
-30 12 -35 45 -9 73 20 22 37 23 57 2z m-456 -11 c6 -10 6 -27 0 -45 -17 -47
-90 -34 -83 15 8 44 64 65 83 30z"/>
<path d="M599 543 c-3 -46 2 -97 10 -105 4 -5 5 20 3 55 l-4 62 41 2 c46 2 48
-2 25 -37 -10 -16 -5 -14 14 8 25 28 62 43 62 25 0 -4 -19 -24 -42 -46 -24
-21 -33 -34 -22 -28 12 6 35 25 51 43 43 48 51 45 49 -20 -1 -53 -3 -57 -24
-56 -29 2 -19 -9 13 -13 24 -4 25 -2 25 66 l0 69 -100 1 -100 1 -1 -27z"/>
<path d="M269 533 c0 -16 -2 -39 -3 -53 -2 -14 -1 -31 1 -37 6 -15 33 -17 33
-3 0 6 -5 9 -12 8 -10 -3 -12 8 -9 78 1 24 3 25 66 23 61 -2 78 -10 55 -24 -5
-3 -10 -1 -10 5 0 6 -5 8 -11 5 -6 -4 -8 -13 -5 -21 3 -7 1 -16 -4 -19 -6 -4
-10 -11 -10 -17 0 -6 6 -6 15 2 9 7 14 19 11 26 -3 8 0 11 9 8 7 -3 16 3 20
15 3 12 13 21 21 21 16 0 19 -16 4 -25 -5 -3 -10 -11 -10 -16 0 -6 5 -7 10 -4
6 4 10 -7 10 -24 0 -30 -5 -34 -42 -34 -10 0 -18 -3 -18 -8 0 -4 15 -6 33 -5
l32 2 3 62 3 62 -96 0 -95 0 -1 -27z"/>
<path d="M755 499 c-11 -17 1 -21 15 -4 8 9 8 15 2 15 -6 0 -14 -5 -17 -11z"/>
<path d="M310 438 c0 -4 16 -7 35 -6 19 1 35 4 35 8 0 3 -16 6 -35 6 -19 -1
-35 -4 -35 -8z"/>
<path d="M650 441 c0 -4 11 -7 25 -7 14 0 25 3 25 7 0 3 -11 7 -25 7 -14 0
-25 -4 -25 -7z"/>
<path d="M710 440 c0 -5 5 -10 10 -10 6 0 10 5 10 10 0 6 -4 10 -10 10 -5 0
-10 -4 -10 -10z"/>
</g>
</svg>
